<svg xmlns="http://www.w3.org/2000/svg" viewBox="0 0 32 32" fill="none">
  <defs>
    <linearGradient id="bg" x1="6" y1="4" x2="28" y2="30" gradientUnits="userSpaceOnUse">
      <stop stop-color="#5B6CFF"/>
      <stop offset="1" stop-color="#3A4AD4"/>
    </linearGradient>
  </defs>
  <rect width="32" height="32" rx="8" fill="url(#bg)"/>
  <!-- 3-lobe cloud, tuned for 16px legibility -->
  <path
    fill="#FFFFFF"
    d="M9.2 20.6c-1.85 0-3.35-1.45-3.35-3.25 0-1.7 1.3-3.1 2.95-3.3.35-2.35 2.4-4.15 4.9-4.15 1.55 0 2.95.7 3.85 1.8.7-.45 1.55-.7 2.45-.7 2.35 0 4.25 1.8 4.4 4.1 1.55.25 2.75 1.55 2.75 3.15 0 1.8-1.5 3.25-3.35 3.25H9.2Z"
  />
  <!-- nimbus highlight -->
  <circle cx="22.2" cy="12.4" r="1.55" fill="#C8D0FF"/>
</svg>
